<?xml version="1.0" standalone="no"?>
<!DOCTYPE svg PUBLIC "-//W3C//DTD SVG 20010904//EN"
 "http://www.w3.org/TR/2001/REC-SVG-20010904/DTD/svg10.dtd">
<svg version="1.0" xmlns="http://www.w3.org/2000/svg"
 width="300.000000pt" height="300.000000pt" viewBox="0 0 300.000000 300.000000"
 preserveAspectRatio="xMidYMid meet">
<metadata>
Created by potrace 1.14, written by Peter Selinger 2001-2017
</metadata>
<g transform="translate(0.000000,300.000000) scale(0.100000,-0.100000)"
fill="#000000" stroke="none">
<path d="M523 2578 c-9 -11 -83 -138 -188 -323 -13 -22 -93 -161 -179 -309
l-156 -270 24 -40 c13 -23 33 -57 44 -76 18 -33 149 -259 189 -328 10 -17 74
-128 142 -247 68 -118 126 -215 130 -216 25 -4 555 -3 560 1 5 3 38 93 75 200
37 107 73 211 81 230 8 19 32 87 54 150 34 100 232 667 382 1095 27 76 49 141
49 142 0 2 -269 3 -599 3 -467 0 -601 -3 -608 -12z m447 -249 c0 -7 -106 -193
-235 -414 -29 -49 -63 -108 -75 -130 -12 -22 -31 -56 -42 -77 l-21 -36 32 -51
c17 -28 31 -53 31 -55 0 -2 25 -45 55 -95 30 -51 55 -93 55 -95 0 -2 18 -34
41 -71 39 -65 55 -93 100 -173 12 -20 30 -52 41 -69 11 -18 17 -36 15 -41 -6
-8 -283 -10 -290 -2 -5 6 -151 258 -185 320 -14 25 -63 110 -109 189 l-85 145
20 35 c10 20 84 147 163 283 79 137 155 267 167 290 13 24 28 45 32 48 13 8
290 7 290 -1z"/>
<path d="M1919 2232 c-9 -2 -73 -171 -177 -470 -90 -257 -184 -523 -208 -592
-24 -69 -55 -156 -68 -195 -21 -61 -68 -195 -170 -484 -14 -41 -26 -76 -26
-78 0 -2 270 -3 600 -3 l600 0 25 40 c14 22 25 42 25 46 0 3 8 18 19 32 10 15
29 47 43 72 14 25 113 198 221 384 l196 339 -20 36 c-11 20 -30 54 -43 76
-122 211 -182 315 -306 530 -79 138 -147 254 -152 260 -8 9 -517 15 -559 7z
m404 -252 c2 -3 82 -140 177 -305 95 -165 179 -311 187 -325 14 -24 11 -31
-57 -150 -40 -69 -82 -143 -95 -165 -58 -103 -208 -361 -212 -365 -3 -3 -72
-5 -153 -5 l-149 -1 19 31 c16 26 205 354 262 455 11 19 38 65 59 102 22 36
39 69 39 72 0 2 -38 71 -85 152 -47 81 -85 148 -85 150 0 1 -33 58 -73 125
-40 68 -87 149 -104 179 l-32 55 149 0 c82 0 151 -3 153 -5z"/>
</g>
</svg>
